<?xml version="1.0" standalone="no"?>
<!DOCTYPE svg PUBLIC "-//W3C//DTD SVG 20010904//EN"
 "http://www.w3.org/TR/2001/REC-SVG-20010904/DTD/svg10.dtd">
<svg version="1.0" xmlns="http://www.w3.org/2000/svg"
 width="152.000000pt" height="152.000000pt" viewBox="0 0 152.000000 152.000000"
 preserveAspectRatio="xMidYMid meet">
<metadata>
Created by potrace 1.11, written by Peter Selinger 2001-2013
</metadata>
<g transform="translate(0.000000,152.000000) scale(0.100000,-0.100000)"
fill="#000000" stroke="none">
<path d="M826 1379 c2 -4 -6 -15 -18 -23 -12 -9 -18 -16 -14 -16 5 0 18 8 29
18 19 17 19 16 6 -5 -8 -13 -17 -23 -22 -23 -4 0 -5 -11 -3 -25 3 -14 1 -25
-4 -25 -4 0 -8 -6 -7 -12 1 -32 -4 -49 -12 -44 -5 3 -11 -1 -14 -9 -4 -8 -1
-12 6 -9 8 3 13 -5 14 -18 2 -18 0 -19 -7 -8 -8 13 -11 13 -22 1 -10 -10 -10
-12 0 -7 7 5 12 1 12 -9 0 -9 -4 -14 -8 -11 -5 3 -9 -1 -9 -9 0 -8 5 -11 11
-8 6 4 3 -2 -6 -13 -14 -16 -15 -23 -6 -32 9 -9 9 -12 -1 -12 -11 0 -11 -3 0
-17 12 -14 12 -16 -2 -11 -10 4 -16 1 -16 -8 0 -8 4 -14 9 -14 5 0 6 -5 3 -10
-5 -8 -12 -7 -23 2 -15 12 -16 11 -3 -4 7 -10 17 -15 22 -12 5 3 9 0 9 -7 0
-7 -8 -9 -21 -6 -17 4 -19 3 -10 -6 13 -13 15 -31 3 -23 -5 3 -9 -1 -9 -9 0
-8 4 -12 8 -10 4 3 6 -2 5 -11 -1 -8 -8 -19 -15 -24 -9 -5 -10 -10 -2 -14 14
-9 14 -26 0 -26 -5 0 -7 5 -3 12 4 7 3 8 -5 4 -9 -6 -9 -11 -1 -21 17 -20 3
-56 -18 -48 -16 6 -16 5 1 -11 22 -23 22 -30 -4 -23 -16 4 -18 3 -8 -9 6 -7
15 -12 18 -9 4 2 8 -2 8 -10 0 -10 -5 -11 -17 -5 -14 7 -16 4 -12 -22 3 -21 1
-29 -7 -24 -7 5 -9 1 -5 -8 3 -9 9 -14 13 -11 4 2 8 -2 8 -10 0 -8 -4 -12 -9
-9 -4 3 -8 0 -8 -6 0 -6 -6 -8 -12 -4 -10 5 -10 4 -1 -6 6 -7 9 -19 6 -28 -4
-8 -2 -13 3 -9 5 3 10 -3 10 -13 0 -10 -5 -18 -11 -17 -5 1 -8 -7 -7 -17 3
-18 2 -18 -14 -5 -18 13 -18 13 -1 -13 11 -18 13 -29 6 -33 -6 -4 -8 -14 -4
-22 4 -12 2 -13 -7 -5 -10 8 -13 4 -14 -14 -1 -13 2 -21 7 -18 5 3 6 -2 3 -10
-3 -9 -11 -13 -18 -9 -6 4 -5 -1 3 -10 10 -13 10 -17 1 -17 -10 0 -10 -3 0
-15 9 -11 9 -15 1 -15 -7 0 -9 -4 -6 -10 3 -5 0 -10 -7 -10 -10 0 -9 -3 2 -11
12 -9 11 -10 -6 -6 -19 4 -20 0 -18 -40 2 -24 0 -42 -5 -39 -9 6 -8 -25 3 -42
4 -6 2 -12 -3 -12 -19 0 -12 -19 14 -42 19 -16 22 -24 13 -30 -10 -6 -10 -8
-1 -8 6 0 15 5 18 10 3 6 14 10 23 10 15 0 15 -2 2 -10 -8 -5 -10 -10 -4 -10
6 0 23 9 36 20 14 10 29 16 33 12 4 -4 2 3 -4 15 -9 19 -9 22 3 17 18 -7 30
12 15 22 -8 5 -9 3 -4 -6 5 -9 4 -11 -4 -6 -9 6 -8 13 3 31 9 13 12 26 8 29
-7 4 -8 40 -2 56 1 3 2 8 2 12 -1 3 6 12 16 20 15 12 16 11 3 -5 -7 -9 -10
-17 -6 -17 4 0 2 -6 -4 -13 -8 -10 -7 -14 3 -14 8 0 13 8 11 18 -2 10 1 21 6
25 6 3 6 10 1 17 -11 14 -12 48 -1 42 4 -3 10 2 13 11 4 11 2 15 -7 11 -8 -3
-14 1 -14 8 0 7 6 11 13 8 9 -3 12 2 9 16 -2 12 1 21 8 21 8 0 8 3 -1 9 -11 7
-11 9 2 14 9 4 16 12 15 19 0 10 -2 10 -6 1 -2 -7 -9 -13 -14 -13 -6 0 -6 7 0
19 6 10 7 22 3 25 -4 4 4 16 18 28 16 13 19 18 8 14 -10 -3 -18 -1 -18 4 0 6
8 10 18 10 9 0 13 4 7 8 -5 4 -11 13 -13 21 -3 12 -1 12 14 0 16 -13 16 -12 5
9 -9 16 -9 22 0 22 8 0 8 4 -1 15 -10 12 -9 15 6 16 11 0 14 3 7 6 -20 7 -15
23 5 17 16 -5 16 -5 -1 6 -19 12 -13 35 6 24 9 -5 9 -4 0 6 -6 7 -9 19 -6 28
5 11 2 13 -8 7 -12 -7 -12 -5 -1 6 11 12 14 12 22 -1 10 -16 11 -14 13 38 1 9
6 21 12 25 6 5 4 7 -5 4 -8 -2 -14 -10 -12 -16 1 -7 -2 -10 -8 -6 -8 5 -8 11
0 20 7 8 8 20 4 26 -5 8 -3 9 5 4 9 -5 12 -1 11 11 -4 33 0 45 10 39 6 -4 6 3
0 21 -9 22 -8 25 5 20 11 -4 14 -2 8 7 -11 18 -12 36 -2 43 5 3 9 14 9 25 0
11 4 18 8 15 5 -3 9 1 9 9 0 8 -4 12 -9 8 -6 -3 -2 9 7 27 9 18 12 29 7 26 -6
-3 -13 1 -16 10 -3 8 -2 13 3 10 5 -3 11 4 14 15 4 13 10 18 18 13 8 -5 10 -3
5 5 -5 7 -15 10 -25 6 -10 -4 -8 1 7 15 12 11 22 25 22 31 0 6 5 7 12 3 7 -4
8 -3 4 5 -6 9 -11 9 -22 0 -12 -10 -13 -9 -8 5 3 9 10 16 15 16 5 0 9 5 9 11
0 5 -6 7 -12 3 -10 -6 -10 -4 0 8 11 14 10 18 -5 28 -16 10 -16 11 -1 6 10 -3
20 -1 23 5 4 5 3 9 -2 8 -21 -4 -34 2 -27 13 5 8 1 9 -12 5 -18 -7 -18 -6 1 9
l20 17 -20 -8 c-34 -12 -67 -16 -62 -7 3 4 -3 8 -13 8 -10 0 -17 -4 -14 -7z
m-226 -1059 c0 -5 -5 -10 -11 -10 -5 0 -7 5 -4 10 3 6 8 10 11 10 2 0 4 -4 4
-10z m90 -144 c0 -2 -8 -10 -17 -17 -16 -13 -17 -12 -4 4 13 16 21 21 21 13z"/>
<path d="M780 1296 c-9 -11 -9 -19 0 -33 11 -17 11 -17 6 1 -4 10 -1 25 5 32
6 8 9 14 6 14 -2 0 -10 -7 -17 -14z"/>
<path d="M1075 1210 c-3 -5 -3 -10 2 -10 4 0 2 -4 -5 -9 -7 -4 -26 -7 -43 -6
-20 1 -27 -1 -20 -8 7 -7 5 -17 -6 -30 -14 -15 -14 -18 -3 -15 10 2 14 -4 12
-17 l-3 -20 16 20 c16 19 16 19 10 -7 -5 -19 -3 -28 5 -28 6 0 8 -4 5 -10 -4
-6 1 -7 12 -3 10 3 15 3 11 -2 -13 -14 11 -45 29 -38 12 5 15 2 10 -10 -4 -10
3 -21 19 -32 15 -9 22 -21 17 -28 -4 -7 0 -7 10 2 18 14 18 14 21 -29 1 -9 13
-16 28 -18 19 -2 28 -10 30 -25 2 -15 9 -21 22 -19 13 3 17 -1 13 -12 -6 -16
25 -41 37 -29 6 6 10 -13 7 -31 -1 -5 6 -3 15 5 12 9 15 9 10 2 -4 -8 -2 -13
6 -14 7 0 4 -4 -7 -9 l-20 -9 20 0 c17 -1 17 -3 5 -11 -12 -8 -12 -10 5 -10
16 0 17 -2 5 -9 -8 -6 -18 -7 -22 -5 -4 3 -5 -1 -2 -9 3 -8 -3 -20 -13 -28
-16 -13 -17 -12 -5 3 9 11 10 18 2 23 -5 3 -11 4 -11 1 -1 -3 -3 -10 -4 -16
-1 -5 -3 -17 -4 -26 -1 -10 -7 -14 -16 -10 -8 3 -14 2 -14 -2 3 -18 -2 -32
-12 -32 -5 0 -7 5 -3 12 4 7 3 8 -4 4 -6 -4 -9 -13 -5 -21 4 -11 1 -13 -13 -8
-16 6 -17 5 -6 -9 11 -14 10 -16 -6 -11 -11 2 -23 -1 -27 -8 -5 -7 -4 -10 2
-6 12 7 10 -29 -2 -40 -4 -5 -5 -3 -1 4 3 6 2 14 -4 18 -5 3 -10 1 -10 -5 0
-6 -4 -9 -9 -5 -6 3 -15 -5 -22 -17 -12 -22 -11 -22 7 -8 18 14 18 14 5 -3 -8
-10 -20 -16 -28 -13 -8 3 -11 1 -8 -4 5 -9 -6 -14 -26 -12 -3 1 -6 -6 -6 -13
0 -12 3 -12 16 -2 14 11 14 10 2 -6 -8 -10 -20 -16 -28 -13 -9 4 -11 1 -7 -6
5 -8 2 -9 -11 -4 -15 5 -16 4 -5 -9 10 -12 9 -15 -6 -15 -16 0 -17 -2 -4 -11
12 -9 11 -10 -8 -6 -12 3 -20 1 -17 -3 3 -5 -3 -14 -12 -20 -17 -11 -17 -11 0
-6 18 6 24 -9 7 -19 -5 -3 -10 -12 -9 -18 0 -9 2 -9 6 1 2 6 9 12 14 12 6 0 7
-5 4 -11 -4 -6 3 -20 16 -32 16 -15 21 -17 17 -5 -5 11 -2 15 10 13 9 -2 17
-4 17 -5 0 -1 8 -3 17 -5 12 -2 15 2 10 13 -5 15 -3 15 10 4 11 -9 18 -10 23
-2 3 5 1 10 -6 10 -8 0 -6 7 5 19 10 11 25 17 34 14 10 -4 13 -2 8 5 -4 7 -3
12 3 12 6 0 8 7 5 15 -4 8 -1 15 5 15 6 0 11 -4 11 -10 0 -5 4 -10 8 -10 8 0
10 6 14 49 1 11 6 17 11 14 5 -3 6 -12 2 -22 -5 -13 -4 -14 7 -3 7 7 13 16 13
20 1 19 38 60 50 55 10 -3 13 1 10 15 -2 13 2 19 13 18 9 0 16 5 14 12 -1 8 2
11 9 6 8 -5 10 -2 7 8 -5 11 0 15 14 14 12 0 23 6 25 14 4 13 3 13 -6 0 -6 -8
-11 -10 -11 -5 1 6 17 26 36 45 25 25 33 29 28 15 -5 -14 -4 -17 4 -10 6 6 13
20 15 32 2 13 7 26 12 30 4 5 5 3 1 -4 -4 -8 1 -11 13 -10 16 1 18 4 8 16 -9
12 -9 13 1 7 9 -5 12 4 10 38 -2 25 -7 46 -11 46 -5 0 -5 5 -2 10 3 6 1 10 -5
10 -7 0 -9 -8 -5 -21 6 -19 5 -20 -8 -8 -8 8 -13 17 -11 21 5 9 -36 48 -50 48
-6 0 -4 5 4 10 13 9 13 10 0 11 -8 1 -18 1 -22 1 -3 -1 -12 5 -18 14 -11 12
-10 13 3 9 8 -4 18 -2 22 4 3 6 0 9 -8 5 -8 -3 -18 0 -22 5 -3 6 -11 9 -16 6
-11 -7 -29 36 -21 49 3 5 0 6 -7 2 -6 -4 -8 -12 -5 -18 4 -7 2 -8 -4 -4 -6 4
-9 13 -5 21 4 11 1 13 -12 9 -13 -5 -16 -3 -13 7 3 8 -7 21 -24 31 -15 10 -28
23 -28 28 0 6 -4 9 -9 6 -5 -3 -12 1 -15 10 -3 8 -10 13 -15 10 -5 -3 -7 2 -4
12 6 23 -22 49 -33 31 -4 -7 -3 -9 4 -5 6 3 13 2 16 -3 9 -14 -22 -7 -37 9 -9
10 -9 11 1 6 8 -5 12 0 12 13 0 12 -5 21 -11 21 -5 0 -7 -4 -4 -10 3 -5 2 -10
-4 -10 -5 0 -12 9 -16 19 -3 11 -13 22 -22 25 -14 6 -14 4 -2 -11 12 -15 11
-15 -8 1 -13 10 -20 23 -17 27 3 5 3 9 0 9 -3 0 -8 -4 -11 -10z m66 -217 c13
-17 13 -17 -6 -3 -11 8 -22 16 -24 17 -2 2 0 3 6 3 6 0 17 -8 24 -17z"/>
<path d="M414 1195 c-4 -8 -11 -12 -17 -8 -6 4 -8 0 -5 -9 5 -11 0 -15 -14
-14 -12 0 -23 -6 -25 -14 -4 -13 -3 -13 6 0 6 8 11 10 11 5 0 -6 -9 -19 -21
-28 -20 -18 -21 -18 -14 5 5 20 5 21 -5 5 -7 -10 -9 -25 -6 -34 6 -14 4 -14
-11 -2 -14 12 -16 12 -8 0 6 -11 4 -13 -9 -8 -10 4 -15 3 -11 -3 3 -6 0 -10
-7 -10 -10 0 -9 -3 2 -11 12 -9 10 -10 -8 -6 -17 4 -22 2 -18 -8 7 -19 -20
-39 -41 -31 -17 6 -17 5 -1 -7 19 -15 14 -29 -8 -20 -9 3 -12 -2 -9 -16 2 -13
0 -19 -6 -15 -12 7 -39 -14 -39 -30 0 -6 5 -4 11 4 9 13 10 13 6 0 -2 -8 -14
-15 -27 -15 -13 0 -25 -7 -27 -15 -4 -13 -3 -13 6 0 6 8 11 11 11 5 0 -5 -24
-32 -52 -60 -28 -27 -48 -45 -45 -38 8 13 -18 12 -30 -2 -4 -4 -2 -5 5 -1 6 4
12 2 12 -3 0 -6 -4 -11 -9 -11 -6 0 -9 -18 -9 -40 0 -22 4 -37 10 -34 5 3 7
-6 4 -20 -3 -14 -1 -28 4 -31 5 -3 7 4 5 15 -2 11 0 20 6 20 5 0 9 -5 9 -11 0
-5 5 -7 11 -3 7 4 7 -1 -1 -16 -8 -15 -8 -20 -1 -16 6 4 11 2 11 -3 0 -6 4
-11 10 -11 5 0 7 8 5 18 -3 9 1 3 10 -15 11 -23 20 -31 32 -27 10 3 7 -2 -7
-10 l-25 -16 29 6 c25 6 28 5 21 -15 -3 -12 -3 -21 2 -20 21 4 34 -2 27 -13
-5 -8 0 -9 14 -6 12 4 20 3 17 -1 -2 -5 6 -19 18 -32 12 -13 21 -28 19 -33 -2
-4 4 -6 13 -2 11 4 15 1 13 -12 -2 -11 5 -18 21 -20 13 -2 26 -12 28 -23 3
-10 9 -19 14 -19 5 0 9 -6 9 -14 0 -7 8 -20 18 -27 15 -12 16 -12 5 2 -10 13
-10 16 2 16 7 0 14 -3 13 -6 -2 -20 4 -30 22 -36 11 -4 18 -10 15 -15 -3 -5 0
-12 6 -16 8 -4 9 -3 5 4 -5 8 0 12 13 12 12 0 21 -5 21 -12 0 -12 15 -2 15 10
0 4 4 13 9 20 6 10 11 10 22 1 12 -10 13 -9 8 6 -6 14 -4 16 7 10 12 -8 12 -6
0 8 -12 16 -12 17 5 10 16 -6 17 -5 4 9 -8 9 -19 13 -25 10 -5 -3 -4 1 3 10
10 13 10 17 -3 22 -11 4 -14 2 -9 -6 4 -6 3 -8 -3 -5 -6 4 -13 21 -17 39 -5
27 -9 30 -17 18 -8 -11 -12 -12 -16 -2 -2 6 -10 9 -16 5 -7 -4 -6 1 2 10 9 12
10 17 2 17 -7 0 -9 5 -5 12 4 6 3 8 -4 4 -6 -3 -19 5 -30 19 -11 14 -23 25
-28 25 -4 0 3 -11 15 -24 17 -19 20 -26 9 -32 -7 -4 -10 -3 -5 1 4 5 -3 19
-15 33 -13 13 -22 25 -21 28 7 12 -12 34 -28 34 -12 0 -19 7 -19 20 0 11 -6
19 -12 18 -7 -2 -12 2 -11 9 2 6 -7 15 -18 18 -17 6 -18 9 -8 23 11 14 11 15
-1 5 -19 -17 -33 -16 -27 1 3 8 -1 13 -11 12 -13 -1 -16 6 -15 27 1 15 -1 25
-6 23 -4 -3 -8 1 -8 9 0 8 4 12 9 9 4 -3 8 2 8 11 0 9 4 13 10 10 6 -3 10 -1
10 5 0 6 5 8 13 4 8 -5 7 -2 -2 9 -12 15 -12 17 3 11 10 -4 18 0 22 11 4 9 12
14 19 11 19 -7 26 4 14 25 -8 15 -6 17 7 12 12 -5 15 -3 9 6 -6 10 -2 11 16 6
18 -5 20 -4 9 4 -12 8 -10 12 10 20 14 5 19 10 12 10 -7 1 -11 5 -7 11 3 5 12
7 19 4 8 -3 17 0 22 7 4 8 3 10 -4 5 -8 -5 -10 -2 -6 8 3 9 11 13 17 9 6 -4 8
0 4 9 -6 18 22 20 36 3 5 -6 6 -2 3 8 -6 19 17 51 28 39 4 -3 4 2 0 12 -5 14
-4 17 4 12 7 -4 12 -1 12 9 0 10 5 13 12 9 8 -5 9 -2 5 10 -4 10 -3 15 4 11 6
-4 8 4 6 22 -2 15 0 34 6 41 6 8 6 12 -1 12 -6 0 -19 8 -28 18 -15 14 -17 14
-12 1 4 -11 0 -15 -13 -14 -10 1 -22 5 -26 10 -5 4 -2 5 6 0 9 -5 12 -4 7 3
-10 16 -15 15 -22 -3z m-139 -325 c3 -6 -1 -7 -9 -4 -18 7 -21 14 -7 14 6 0
13 -4 16 -10z m-245 -84 c0 -3 -4 -8 -10 -11 -5 -3 -10 -1 -10 4 0 6 5 11 10
11 6 0 10 -2 10 -4z m295 -195 c3 -5 2 -12 -3 -15 -5 -3 -9 1 -9 9 0 17 3 19
12 6z"/>
<path d="M504 1143 c2 -10 6 -17 10 -16 15 3 16 11 2 22 -12 10 -14 9 -12 -6z"/>
<path d="M510 1100 c0 -5 5 -10 11 -10 5 0 7 5 4 10 -3 6 -8 10 -11 10 -2 0
-4 -4 -4 -10z"/>
<path d="M1226 1088 c3 -5 10 -6 15 -3 13 9 11 12 -6 12 -8 0 -12 -4 -9 -9z"/>
<path d="M883 1013 c0 -9 4 -10 14 -2 7 6 13 12 13 14 0 1 -6 2 -13 2 -8 0
-14 -6 -14 -14z"/>
<path d="M1365 950 c-3 -6 1 -7 9 -4 18 7 21 14 7 14 -6 0 -13 -4 -16 -10z"/>
<path d="M82 884 c-7 -14 -17 -22 -22 -19 -6 3 -10 1 -10 -4 0 -6 4 -11 10
-11 11 0 45 49 38 55 -3 3 -10 -6 -16 -21z"/>
<path d="M1426 635 c-9 -26 -7 -32 5 -12 6 10 9 21 6 23 -2 3 -7 -2 -11 -11z"/>
<path d="M780 561 c0 -6 4 -13 10 -16 6 -3 7 1 4 9 -7 18 -14 21 -14 7z"/>
<path d="M180 531 c0 -6 4 -13 10 -16 6 -3 7 1 4 9 -7 18 -14 21 -14 7z"/>
<path d="M610 520 c0 -5 4 -10 9 -10 6 0 13 5 16 10 3 6 -1 10 -9 10 -9 0 -16
-4 -16 -10z"/>
<path d="M1289 493 c-12 -16 -12 -17 2 -6 9 7 20 9 24 5 5 -4 5 -1 1 6 -9 16
-11 15 -27 -5z"/>
<path d="M285 431 c-3 -5 -2 -12 3 -15 5 -3 9 1 9 9 0 17 -3 19 -12 6z"/>
<path d="M1156 371 c-4 -5 -2 -12 3 -15 5 -4 12 -2 15 3 4 5 2 12 -3 15 -5 4
-12 2 -15 -3z"/>
<path d="M476 341 c-3 -5 1 -11 9 -14 9 -4 12 -1 8 9 -6 16 -10 17 -17 5z"/>
</g>
</svg>
